<svg xmlns="http://www.w3.org/2000/svg" xmlns:xlink="http://www.w3.org/1999/xlink" viewBox="0 0 998.57 437.68"><defs><linearGradient id="linear-gradient" x1="1453.86" y1="1299.24" x2="1453.57" y2="1298.92" gradientTransform="matrix(58.89, 0, 0, -136.59, -85310.23, 177498.28)" gradientUnits="userSpaceOnUse"><stop offset="0" stop-color="#b25a28"/><stop offset="1" stop-color="#742911"/></linearGradient><radialGradient id="radial-gradient" cx="-973.74" cy="211.88" r="1.41" gradientTransform="translate(192.39 -13.62) scale(0.8 0.8)" gradientUnits="userSpaceOnUse"><stop offset="0" stop-color="#88ac35"/><stop offset="1" stop-color="#107840"/></radialGradient><radialGradient id="radial-gradient-2" cx="1482.76" cy="1292.43" r="0.7" gradientTransform="matrix(-186.18, 311.89, 299.61, 178.85, -111056.77, -693232.01)" gradientUnits="userSpaceOnUse"><stop offset="0" stop-color="#fd3720"/><stop offset="0.14" stop-color="#fc3b22"/><stop offset="0.5" stop-color="#f28047"/><stop offset="1" stop-color="#fdde6f"/></radialGradient></defs><title>wcatl20-logo-gradient</title><g id="Layer_2" data-name="Layer 2"><g id="Layer_1-2" data-name="Layer 1"><path d="M306.54,87.07h0q-.84,2.58-1.72,5.13s0,0,0,0a195.17,195.17,0,0,1-15.45,33.7A180.2,180.2,0,0,1,278.84,142q-.15.22-.3.42a4.53,4.53,0,0,1-6.71.7,10.52,10.52,0,0,1-3.18-8.42,11.68,11.68,0,0,1,.15-1.31c.17-.64.34-1.29.5-1.94q1.83-7.18,3.13-14.46a210.5,210.5,0,0,0,3-25.21,208.93,208.93,0,0,0,.1-22.1c0-.36,0-.71,0-1.06a12.33,12.33,0,0,1,.87-4.55c2.56-6.35,8-10,13.41-9.76a11.73,11.73,0,0,1,5.16,1.48c8.42,4.65,13.1,14.94,12.49,25.55a31,31,0,0,1-.84,5.71Z" style="fill-rule:evenodd;fill:url(#linear-gradient)"/><path d="M261.24,128.34a105.23,105.23,0,0,0-29.59-28.24c-1.67-1-3.3-2-4.92-3A160,160,0,0,0,152.89,79.2a163.46,163.46,0,0,0-16.8.86C123.34,60.55,114.55,34.41,107.47,0c64.15,16.69,176.15,42,153.77,128.34Z" style="fill-rule:evenodd;fill:url(#radial-gradient)"/><path d="M218.67,103.91c1.88,1.07,3.78,2.21,5.73,3.42,40.11,24.79,61.15,81.91,49.72,140.71-13.88,71.41-70,121-127.19,114q2.94.78,6,1.37c59.21,11.51,118.86-39.08,133.23-113,7.18-36.92,1.7-72.68-13-100.66A146.83,146.83,0,0,1,301.75,237c0,82.22-67.55,148.87-150.87,148.87S0,319.17,0,237,67.55,88.07,150.88,88.07a151.91,151.91,0,0,1,67.79,15.84Z" style="fill-rule:evenodd;fill:url(#radial-gradient-2)"/><path d="M374.71,170.06h-4.85l-8-29.38h-.1l-8.08,29.38h-4.84l-9-35h4.75l6.85,29.08h.1l7.83-29.08h5.05l7.73,29.08h.1l7.1-29.08h4.65Z" style="fill:#04381b"/><path d="M414,134.26c11.12,0,16.75,8.82,16.75,18.32s-5.63,18.31-16.75,18.31-16.74-8.81-16.74-18.31S402.92,134.26,414,134.26ZM414,167c8.52,0,12.1-7.34,12.1-14.39s-3.58-14.4-12.1-14.4-12.09,7.35-12.09,14.4S405.51,167,414,167Z" style="fill:#04381b"/><path d="M447.24,135.1h16.45c6.56,0,10.62,3.57,10.62,9.15,0,4.22-1.86,7.69-6.07,8.87v.09c4.07.79,4.9,3.78,5.24,7.2s.1,7.25,2.06,9.65h-5.19c-1.32-1.42-.59-5.19-1.28-8.62-.48-3.43-1.32-6.32-5.82-6.32H451.89v14.94h-4.65Zm14.34,16.11c4.36,0,8.08-1.13,8.08-6.22,0-3.43-1.86-6-6.22-6H451.89v12.2Z" style="fill:#04381b"/><path d="M491.55,135.1h12c10.77,0,16.8,5.38,16.8,16.65,0,11.7-5.15,18.31-16.8,18.31h-12Zm4.66,31h7.73c3.18,0,11.75-.88,11.75-13.76,0-8.32-3.08-13.37-11.65-13.37h-7.83Z" style="fill:#04381b"/><path d="M561.38,145.63c-1-4.95-4.94-7.45-9.79-7.45-8.32,0-11.85,6.86-11.85,14.15,0,8,3.53,14.64,11.9,14.64,6.12,0,9.64-4.3,10.09-10.08h4.65c-.88,8.71-6.32,14-15.13,14-10.87,0-16.16-8-16.16-18.21s5.78-18.42,16.55-18.42c7.29,0,13.32,3.92,14.39,11.37Z" style="fill:#04381b"/><path d="M592.43,135.1h5.14l13.66,35h-5.14l-3.82-10.53H587.48l-3.91,10.53h-4.8ZM589,155.61H600.8L595,139.31h-.1Z" style="fill:#04381b"/><path d="M625.53,135.1h6.37l11,29.38L654,135.1h6.37v35h-4.41V141h-.1l-10.92,29.09h-4L630,141h-.1v29.09h-4.41Z" style="fill:#04381b"/><path d="M678.86,135.1h15.33c6.95,0,10.72,3.87,10.72,10.33s-3.77,10.38-10.72,10.33H683.51v14.3h-4.65Zm4.65,16.74h9.11c5.24,0,7.64-2.25,7.64-6.41s-2.4-6.42-7.64-6.42h-9.11Z" style="fill:#04381b"/><path d="M399.23,336.44a32,32,0,0,1-2.87-9.6q-10.38,11.58-27,11.58-15.74,0-26.07-9.11a29.25,29.25,0,0,1-10.34-22.95q0-17,12.61-26.13T382,271h13.16v-6.14q0-7.41-3.81-11.87t-12-4.45q-7.21,0-11.33,3.46a11.79,11.79,0,0,0-4.1,9.5h-28.6a28.72,28.72,0,0,1,5.74-17.22q5.73-7.92,16.23-12.42a59.15,59.15,0,0,1,23.55-4.5q19.79,0,31.42,10t11.62,28V311.7q.11,15.24,4.26,23.05v1.69Zm-23.65-19.89a24.62,24.62,0,0,0,11.68-2.82,18.61,18.61,0,0,0,7.92-7.57V287.75H384.49q-21.48,0-22.86,14.84l-.1,1.69a11.45,11.45,0,0,0,3.76,8.8Q369.06,316.54,375.58,316.55Z" style="fill:#04381b"/><path d="M480.08,203.05v26.32h18.31v21H480.08v53.43q0,5.94,2.27,8.51c1.52,1.72,4.42,2.57,8.71,2.57a45.73,45.73,0,0,0,8.41-.69v21.67a58.67,58.67,0,0,1-17.31,2.58q-30.09,0-30.68-30.38V250.35H435.85v-21h15.63V203.05Z" style="fill:#04381b"/><path d="M544.5,336.44H515.8v-152h28.7Z" style="fill:#04381b"/><path d="M630.09,336.44a32,32,0,0,1-2.87-9.6q-10.38,11.58-27,11.58-15.74,0-26.08-9.11a29.29,29.29,0,0,1-10.34-22.95q0-17,12.62-26.13t36.46-9.2H626v-6.14q0-7.41-3.81-11.87t-12-4.45q-7.22,0-11.33,3.46a11.76,11.76,0,0,0-4.1,9.5h-28.6a28.72,28.72,0,0,1,5.74-17.22q5.73-7.92,16.23-12.42a59.15,59.15,0,0,1,23.55-4.5q19.78,0,31.41,10t11.63,28V311.7q.1,15.24,4.26,23.05v1.69Zm-23.65-19.89a24.64,24.64,0,0,0,11.68-2.82,18.53,18.53,0,0,0,7.91-7.57V287.75H615.35q-21.48,0-22.86,14.84l-.1,1.69a11.41,11.41,0,0,0,3.76,8.8Q599.92,316.54,606.44,316.55Z" style="fill:#04381b"/><path d="M703,229.37l.89,12.37q11.48-14.36,30.77-14.35,17,0,25.34,10t8.51,29.89v69.17h-28.6V268q0-9.1-4-13.21t-13.16-4.11q-12.07,0-18.11,10.3v75.5H676.1V229.37Z" style="fill:#04381b"/><path d="M824.43,203.05v26.32h18.31v21H824.43v53.43q0,5.94,2.28,8.51c1.52,1.72,4.42,2.57,8.71,2.57a45.81,45.81,0,0,0,8.41-.69v21.67a58.74,58.74,0,0,1-17.32,2.58q-30.07,0-30.67-30.38V250.35H780.2v-21h15.64V203.05Z" style="fill:#04381b"/><path d="M920.72,336.44a31.76,31.76,0,0,1-2.87-9.6q-10.4,11.58-27,11.58-15.74,0-26.07-9.11a29.25,29.25,0,0,1-10.34-22.95q0-17,12.61-26.13T903.5,271h13.16v-6.14q0-7.41-3.81-11.87t-12-4.45q-7.23,0-11.33,3.46a11.77,11.77,0,0,0-4.11,9.5h-28.6a28.72,28.72,0,0,1,5.74-17.22q5.75-7.92,16.23-12.42a59.15,59.15,0,0,1,23.55-4.5q19.79,0,31.42,10t11.63,28V311.7q.09,15.24,4.25,23.05v1.69Zm-23.65-19.89a24.6,24.6,0,0,0,11.67-2.82,18.61,18.61,0,0,0,7.92-7.57V287.75H906q-21.47,0-22.86,14.84l-.1,1.69a11.42,11.42,0,0,0,3.77,8.8Q890.53,316.54,897.07,316.55Z" style="fill:#04381b"/><path d="M815.28,432.21l-.48,1a4.31,4.31,0,0,0-1.33,1.07,11.26,11.26,0,0,1-3.18,2l-1.14-.31-2.36.2,0,1a6.46,6.46,0,0,0-1.63-.14,4,4,0,0,0-2.35.69,3,3,0,0,0-1.31-.31,1,1,0,0,0-.65.17l-1.88-.62-1.62,0-2.22-1.27-1.46,0-.56.82-2-1.68-1.38.42q-.84-1.69-2-1.68h-.32l-1.71.35q-1.62,0-1.65-1.77a4.4,4.4,0,0,1-2,.52,27.87,27.87,0,0,1-3.67-.43,7.44,7.44,0,0,0-.84-1.54l-1.45.35a5.43,5.43,0,0,1-2.21-.78,8.85,8.85,0,0,0-2.37-1c-.16.22-.54.34-1.14.35a4,4,0,0,1-2.71-1.67l-2.36-.13-.48.17h-.33a2.9,2.9,0,0,1-2.3-1.59l-1,.66-1.31-.79-1.14,0-1.54-.14a5.89,5.89,0,0,1-4.44,2.58l-.5-.72-1.35,2.05a9.32,9.32,0,0,0-2.6.44q-1.38.44-2.19.6a4.09,4.09,0,0,0-1.85,1.25l-2.76.53v.49c0,.32-.18.49-.56.49a2.63,2.63,0,0,1-1.64-.95,2.89,2.89,0,0,1-2,1l-3.66.05-5.81-2.11c-1.26-1.34-1.9-2.5-1.92-3.47a14.51,14.51,0,0,0-.2-2.44l1.12-1.4-.5-1a6.7,6.7,0,0,1,4.12-2.09l2-1.82,1.63.14,4.68-2.59.81.31a46.35,46.35,0,0,1,5.36-.89,1.44,1.44,0,0,1,1,.48l4.15-.06,3.18.6a8.21,8.21,0,0,0,4.49,1.48l2.2-.35,1.15.79c1.17-1.37,2.16-2.06,3-2.07l.65.15,3.8-1.68-.34-.65c2.32-.68,3.48-1.16,3.48-1.43v-.16l1.18-2.3,2.74-1.75,5.5-2.6c-.55-.53-.83-.9-.83-1.12,0-.54.42-1,1.28-1.32v-1.06a20.66,20.66,0,0,1,2.83-.85.94.94,0,0,1,.66.31,7.71,7.71,0,0,1,3.28-3.54l.6-3.35,3.17-.53q.36-2.68,2.64-2.88L796,391l1.38-.35a23.87,23.87,0,0,1,1.27-4.81,7.62,7.62,0,0,0,.74-2.7v-.57a1,1,0,0,1,1-.83l.93-2.86-1.32-.95c1.09-.18,1.62-.52,1.62-1l-.53-2.68,0-2.85L798.31,367a4.77,4.77,0,0,0-2.56-3l-6.15-3.57-1.09-2-2.1.92L784,357.67l-2.19,0-1.33-1.93-2.35.68-2.94-.61-1.38.19-1.79-.47-3.17.54-1.23-.72-1.45.76-1.31-.72-2,.76-3.18-.11a1.59,1.59,0,0,1-1.61,1.16,3.63,3.63,0,0,1-1.22-.15l-3,1.84-2,0-.47,1.23-2.34,1a2.46,2.46,0,0,0-1.31-.47c-.65,0-1.53.86-2.65,2.56l-2.52,0,0,1.62-1.3.35c-.31.93-.82,1.39-1.52,1.4L740,368l-2.76.85v.33c0,.7-.6,1.5-1.84,2.38l-.3,1.31-3.66.38L730.22,372a1.84,1.84,0,0,1-.33-.73l-1.18-2.75v-.81a3.1,3.1,0,0,1,1.5-3l.49.49c.08-2.28.49-3.51,1.25-3.68l1.57,1.28.94-2.29,2.28,0,.54-1.39,5.89-3.42,1.88.71,1.44-1.89,1.7-.35v-.49a7.88,7.88,0,0,1,5.1-1.78,9.43,9.43,0,0,1,2.85.28,13.16,13.16,0,0,1,7.12-2.54l1.14,0,5.21.41,4.14-.22,2.21.46a1.82,1.82,0,0,0,1.47.47l1.05,0a13.64,13.64,0,0,1,6.31,2.92l1.54-.51,1.31.63c.34,1.13,1.46,1.8,3.36,2l1.57,1.93,4.51,2,5.36,5.7.77,2.19-.13,2.2,2.12.62-.47,1.3,1,1.7-.45,2.69.85,2.59-.78,1.88.2,2.68a5.48,5.48,0,0,1-1.3,3.11,28.78,28.78,0,0,0-2.62,4.55,8.78,8.78,0,0,1-2.87,3.75,8.94,8.94,0,0,0-1.65,1.16l-1.34,3.19-1.62.67-.31.9-1.7.19a1.12,1.12,0,0,1,.5.81,1.41,1.41,0,0,1-.24.65,4.63,4.63,0,0,1-1.28,1.12,5.33,5.33,0,0,1-1.62.83,1.68,1.68,0,0,0-1,.67,13,13,0,0,1-1.72,1.69,4.9,4.9,0,0,0-1.56,2l-2.65,2.16h-.81c-1.9,0-2.84.56-2.83,1.59v.48l-.65-.15c-1,0-1.86.76-2.66,2.23-.3,1.42-1.66,2.71-4.09,3.89l-1.3-.31-.47,1.63a1.68,1.68,0,0,0-1.37,1l-1.76,1.57,2.27,0,.92,1.45a1.27,1.27,0,0,1,1.13-.67,2,2,0,0,1,1.14.31,2.47,2.47,0,0,0,2.55,1.67l1.7-.19.51,1.14,2.43-.53,1.08,1.78,2.12,0a5.51,5.51,0,0,0,4.59,2.45c.54,0,.81-.12.81-.34v-.32l6.71,2.42a1.62,1.62,0,0,0,1.63.31l1.86-.36,1.32,1,7.82.86,2-1,2.52,0c0-.65.63-1,1.94-1h.89Zm-61.46-8.47a29.37,29.37,0,0,0-6.2-1.53l-1.46,0a4.8,4.8,0,0,1-2.54-.86,3.66,3.66,0,0,1-2.1.76h-.73l-1.94,1h-.49c-1.52,0-3,1.43-4.33,4.21q1.26,2.67,5.08,2.61l2.35-.68,1.3,0,1-.91,5.19-1.54Z" style="fill:#b83800"/><path d="M866.68,386.16a73.3,73.3,0,0,1,1.09,9.61,3.92,3.92,0,0,1-1.39,2.53l1,1.2-1.4,1.58,1.17,1.34-1.8,2L864,408.7l-2.61,2.41-.72,1.84a9.41,9.41,0,0,0-2,2.47l-2.36.78,0,1.49-1.82.7-1.2,1.38a11.2,11.2,0,0,1-2.75,1.8l-.8,1.37-1.55,0-.94,1.23-1.56-.38-2.34,2.54-4,1.62-2.89,1.8-2.5.44-1.34,1c-.45.28-2.12.55-5,.82l-1.13,1.44-3.6-.7-1.08.43-2-.38-1.08.28-2-.92-2.1,0a12.88,12.88,0,0,0-3.29-2.36c-.68-.23-1.07-.58-1.17-1l-.83-1.55-1.1-1.13a18.19,18.19,0,0,1-1.89-3.91l.38-1.83-.89-.8.7-3.06a3.65,3.65,0,0,1-.64-2,2.18,2.18,0,0,1,.72-1.7,9,9,0,0,0,.25-2l-.17-2.1,1.84-4.09.42-3.33,1.2-1.78.89-3.81,1.12-2.79a11.35,11.35,0,0,1,.83-3.27,17.63,17.63,0,0,1,3.2-4l-.43-1.07,1.19-2.26-.43-1.82,1.42.11,1.73-2.4c1.4-.38,2.17-1.59,2.32-3.62l1.67-1.65.82.39,1.06-1.44a4.4,4.4,0,0,0,.85-2.24l2.51,0,.25-1.36,1.09,0,0-1.69c1.81-.12,3-.72,3.7-1.82l4.46-1.48,2.62-1.13h1.09l2.09-.57,1.5.79c.76-.74,1.32-1.1,1.68-1.11q.27,0,1.2.93a6.66,6.66,0,0,1,1.49,2.49l2.4,1.32,1.92,1.87a6.47,6.47,0,0,0,2.11.85l2.16,3.9,2.12,1.33a5.18,5.18,0,0,0,2.7,3.68,6,6,0,0,1,1.14,3.78v.95l1.52,1.68-.39,1.36Zm-2.41,6.61-.57-1.69.24-2.24-1.46-2.62.24-2.31-1.11-1.41a34.22,34.22,0,0,0-1.49-4.86,5.73,5.73,0,0,1-3.79-4.62,17.55,17.55,0,0,1-3.76-2.18l-2.51-.1c-1.58-2.46-3.17-3.68-4.8-3.66q-.13.54-1.62.57l-1.83-.11-1.07.76a10.91,10.91,0,0,1-3.18.92l-.85,1.71-1.48.84-1.44-.66L833,373l-1.28.49a25,25,0,0,0-3.42,2.63l-1.73,2.12a14.8,14.8,0,0,1-3,2.62l-.72,1.57L818.52,388l.29,1.76-2.61,2.41.17,1.83-1.48,1.1-.82,3.95v.13c0,.55-.4,1.13-1.23,1.75a2.72,2.72,0,0,0-1.22,2.29,1.53,1.53,0,0,1-.39,1.09l.16,1.83-.52,1.56.16,1.76-1.74,1.18.28,1.08-.25,1.36,1,.6-.93,1.36,1.1,1.07-1.55.77,1.18,2.15-.38,1.7c.19.41.51,1.06,1,1.95q3,6.06,5.91,6h.14l2.37-.17,1.51,1.2a11.53,11.53,0,0,1,3.24-.73l1.5.25.94-.69q5.48-.15,7.22-2.07l2.51.1.38-1.77.83.94,1.93-2,1.5.52,1.94-1.93q3.3-.93,4.16-3c1,0,1.49-.25,1.48-.7a.67.67,0,0,0-.14-.48h.27c1,0,2-.8,3.15-2.35l3.89-2.56q.12-1.29,1.2-1.44c2-2.2,3-3.73,3-4.59V407l1.35-.76a9.35,9.35,0,0,1,2.45-4q-1-.19-1-.93a3.76,3.76,0,0,1,.82-1.78,4,4,0,0,0,.82-1.77v-.14l-.5-1.75Z" style="fill:#b83800"/><path d="M939.54,421.54l-.45.79a3.66,3.66,0,0,0-1.16.81,9.78,9.78,0,0,1-2.77,1.48l-.93-.32-2,0,0,.81a6.07,6.07,0,0,0-1.35-.21,3.24,3.24,0,0,0-2,.44,2.42,2.42,0,0,0-1.07-.33.8.8,0,0,0-.55.1l-1.53-.63-1.35-.07-1.77-1.19-1.21-.06-.52.65-1.54-1.51-1.17.27c-.4-1-.91-1.48-1.55-1.51l-.27,0-1.43.2c-.9-.05-1.33-.58-1.27-1.57a3.68,3.68,0,0,1-1.72.31,22,22,0,0,1-3-.57,6.21,6.21,0,0,0-.61-1.32l-1.23.2a4.33,4.33,0,0,1-1.79-.78,7.1,7.1,0,0,0-1.91-.92,1.21,1.21,0,0,1-1,.22,3.27,3.27,0,0,1-2.15-1.55l-2-.24-.41.11h-.27c-.68,0-1.28-.53-1.82-1.46l-.91.49-1-.74-.94-.05-1.28-.21a4.87,4.87,0,0,1-3.84,1.9l-.37-.64-1.25,1.63a8.11,8.11,0,0,0-2.18.22c-.78.18-1.4.31-1.85.37a3.44,3.44,0,0,0-1.62.93l-2.32.28,0,.41c0,.27-.18.39-.5.38a2.26,2.26,0,0,1-1.31-.89,2.41,2.41,0,0,1-1.73.72l-3-.17-4.7-2.1a4.75,4.75,0,0,1-1.4-3,12.24,12.24,0,0,0,0-2l1-1.1-.36-.83a5.58,5.58,0,0,1,3.55-1.5l1.77-1.4,1.35.21,4-1.88.66.31a39.2,39.2,0,0,1,4.5-.43,1.2,1.2,0,0,1,.79.45l3.45.19,2.61.69a6.92,6.92,0,0,0,3.65,1.5l1.85-.17.91.73c1-1.08,1.92-1.59,2.59-1.56l.54.17,3.25-1.18-.24-.56c2-.43,3-.76,3-1v-.14l1.12-1.84,2.38-1.29,4.72-1.84c-.43-.48-.63-.81-.62-1q0-.67,1.14-1l0-.88a18.3,18.3,0,0,1,2.4-.55.79.79,0,0,1,.53.3,6.44,6.44,0,0,1,2.94-2.75l.69-2.75,2.66-.26c.31-1.47,1.1-2.22,2.37-2.24l1.16-1.43,1.17-.21A19.28,19.28,0,0,1,928.4,382a6.27,6.27,0,0,0,.76-2.19l0-.48a.86.86,0,0,1,.92-.63l.94-2.32-1-.87c.91-.09,1.38-.33,1.4-.74l-.28-2.25.13-2.37-2-3.85a4,4,0,0,0-2-2.62l-4.9-3.33-.79-1.74-1.8.65-1.88-1.53-1.83-.1-1-1.68-2,.43-2.41-.68-1.16.07-1.47-.49-2.66.26-1-.66-1.25.54-1-.67-1.72.52-2.64-.29a1.33,1.33,0,0,1-1.4.88,3.34,3.34,0,0,1-1-.2L892.75,357l-1.62-.09-.46,1-2,.7a2.1,2.1,0,0,0-1.06-.47c-.54,0-1.32.63-2.35,2l-2.1-.12-.07,1.35-1.1.22c-.31.75-.76,1.11-1.35,1.07l.08,1.09-2.34.55,0,.28c0,.58-.59,1.21-1.66,1.87l-.33,1.07-3.06.1-1-1.14a1.69,1.69,0,0,1-.24-.62l-.82-2.36,0-.67a2.58,2.58,0,0,1,1.43-2.44l.38.43c.19-1.89.61-2.88,1.25-3l1.23,1.15.92-1.85,1.89.11.54-1.13,5.09-2.5,1.52.7,1.31-1.49,1.43-.19,0-.41a6.53,6.53,0,0,1,4.34-1.18,7.66,7.66,0,0,1,2.35.4,10.92,10.92,0,0,1,6.07-1.7l.95.05,4.31.65,3.45.05,1.81.51a1.56,1.56,0,0,0,1.19.48l.88,0a11.41,11.41,0,0,1,5.08,2.8l1.3-.34,1.06.6c.21,1,1.11,1.58,2.68,1.85l1.19,1.69,3.63,1.9,4.13,5,.51,1.86-.24,1.82,1.73.64-.46,1.06.73,1.47-.53,2.21.56,2.2-.77,1.52,0,2.24a4.58,4.58,0,0,1-1.26,2.51,23.23,23.23,0,0,0-2.44,3.63A7.37,7.37,0,0,1,928,389.2a7.62,7.62,0,0,0-1.44.87l-1.3,2.57-1.38.47-.31.73-1.43.05a.94.94,0,0,1,.37.7,1.14,1.14,0,0,1-.24.53,3.54,3.54,0,0,1-1.13.86,4.62,4.62,0,0,1-1.39.6,1.36,1.36,0,0,0-.84.49,11.3,11.3,0,0,1-1.54,1.31,4.06,4.06,0,0,0-1.4,1.55l-2.34,1.64-.67,0c-1.58-.09-2.39.3-2.44,1.15l0,.41-.54-.17c-.81,0-1.59.53-2.33,1.71-.34,1.16-1.55,2.15-3.63,3l-1.07-.33-.48,1.33a1.36,1.36,0,0,0-1.19.75l-1.56,1.2,1.89.1.68,1.26a1.07,1.07,0,0,1,1-.49,1.67,1.67,0,0,1,.94.33,2.06,2.06,0,0,0,2,1.54l1.42-.06.36,1,2-.3.8,1.54,1.76.1a4.58,4.58,0,0,0,3.67,2.31c.45,0,.68-.05.69-.23l0-.28,5.43,2.41a1.36,1.36,0,0,0,1.34.35l1.57-.19,1,.87L932.8,422l1.73-.72,2.1.11c0-.54.59-.78,1.67-.72l.75,0ZM889,410.92a25.22,25.22,0,0,0-5.07-1.64l-1.22-.06a4,4,0,0,1-2-.86,3.13,3.13,0,0,1-1.79.51l-.61,0-1.67.73-.41,0c-1.26-.07-2.54,1-3.84,3.25q.88,2.3,4.07,2.47l2-.43,1.08.05.86-.69,4.39-1Z" style="fill:#b83800"/><path d="M997.5,388.79a58.86,58.86,0,0,1,1.07,8.65,3.39,3.39,0,0,1-1.39,2.27l1,1.09-1.41,1.42,1.17,1.2-1.8,1.8-1.44,3.86-2.61,2.17-.72,1.66a8.53,8.53,0,0,0-2,2.23l-2.36.7v1.34l-1.82.64-1.2,1.24a11.28,11.28,0,0,1-2.75,1.62l-.8,1.23-1.56,0-.93,1.11-1.56-.34L974.1,425l-4,1.46-2.89,1.62-2.51.41-1.34.87a20.42,20.42,0,0,1-5,.74l-1.14,1.3-3.6-.62-1.08.38-2-.34-1.08.26-2-.82-2.1,0a12.68,12.68,0,0,0-3.28-2.12q-1-.32-1.17-.93l-.83-1.39-1.1-1a15.39,15.39,0,0,1-1.88-3.51l.38-1.65-.89-.72.71-2.76a3,3,0,0,1-.64-1.76,1.86,1.86,0,0,1,.73-1.53,6.9,6.9,0,0,0,.24-1.84l-.16-1.89,1.84-3.68.43-3,1.2-1.6.9-3.43,1.12-2.52a9.43,9.43,0,0,1,.83-2.94,16.5,16.5,0,0,1,3.21-3.58l-.42-1,1.19-2-.43-1.64,1.42.1,1.73-2.16c1.4-.35,2.17-1.44,2.33-3.27l1.67-1.49.82.36,1.07-1.3a3.88,3.88,0,0,0,.85-2l2.5,0,.26-1.22,1.08,0,0-1.53c1.81-.1,3-.65,3.7-1.63l4.46-1.35,2.63-1,1.08,0,2.1-.52,1.5.71a3.35,3.35,0,0,1,1.68-1q.27,0,1.2.84a6,6,0,0,1,1.48,2.24l2.39,1.18,1.93,1.68a6.59,6.59,0,0,0,2.11.76l2.15,3.51,2.12,1.19a4.72,4.72,0,0,0,2.69,3.32,5,5,0,0,1,1.13,3.4l0,.85,1.51,1.5-.39,1.23Zm-2.42,5.95-.57-1.52.25-2-1.46-2.36.24-2.08-1.1-1.26a27.55,27.55,0,0,0-1.49-4.37,5.34,5.34,0,0,1-3.79-4.16,17.87,17.87,0,0,1-3.75-2l-2.51-.08c-1.57-2.22-3.17-3.31-4.79-3.29q-.14.5-1.62.51l-1.83-.09-1.08.68a11.8,11.8,0,0,1-3.17.84l-.86,1.54-1.48.75-1.43-.59-.79,1.66-1.28.45a23.11,23.11,0,0,0-3.43,2.36l-1.73,1.92a14.68,14.68,0,0,1-3,2.36l-.72,1.41-4.34,5.07.3,1.58L947,394.27l.15,1.65-1.47,1-.83,3.55v.12c0,.49-.4,1-1.23,1.57a2.41,2.41,0,0,0-1.23,2.06,1.21,1.21,0,0,1-.39,1l.16,1.65-.52,1.41.16,1.58-1.75,1.07.29,1-.26,1.22,1,.54-.93,1.23,1.1,1-1.55.69,1.18,1.94-.39,1.53c.19.36.51.95,1,1.75q3,5.46,5.9,5.41h.14l2.37-.16,1.51,1.08a12.41,12.41,0,0,1,3.24-.66l1.49.22L957,427c3.66-.09,6.07-.72,7.23-1.87l2.51.08.38-1.59.83.84,1.94-1.79,1.5.46,1.94-1.73q3.3-.84,4.16-2.69c1,0,1.49-.22,1.48-.63a.54.54,0,0,0-.14-.42h.27c1,0,2.05-.72,3.16-2.12l3.89-2.31a1.3,1.3,0,0,1,1.21-1.3c2-2,3-3.35,3-4.13v-.24l1.35-.69a8.48,8.48,0,0,1,2.45-3.64q-.95-.17-1-.84a3.37,3.37,0,0,1,.83-1.59,3.34,3.34,0,0,0,.82-1.6v-.12l-.5-1.58Z" style="fill:#b83800"/></g></g></svg>